<?xml version="1.0" encoding="UTF-8"?>
<svg id="Ebene_2" data-name="Ebene 2" xmlns="http://www.w3.org/2000/svg" viewBox="0 0 158.39 154.4">
  <defs>
    <style>
      .cls-1 {
        fill: none;
        stroke: #73b231;
        stroke-miterlimit: 10;
        stroke-width: 2px;
      }

      .cls-2 {
        fill: #fff;
        stroke-width: 0px;
      }
    </style>
  </defs>
  <g id="Ebene_1-2" data-name="Ebene 1">
    <g>
      <path class="cls-2" d="m113.52,7.2H44.87c-3.77,0-7.25,2.01-9.14,5.28L1.41,71.92c-1.88,3.26-1.88,7.29,0,10.55l34.32,59.45c1.88,3.26,5.37,5.28,9.14,5.28h68.65c3.77,0,7.25-2.01,9.14-5.28l34.32-59.45c1.88-3.26,1.88-7.29,0-10.55L122.66,12.47c-1.88-3.26-5.37-5.28-9.14-5.28Z"/>
      <path class="cls-1" d="m96.89,1.27L30.01,16.71c-3.67.85-6.61,3.59-7.72,7.2L2.22,89.56c-1.1,3.6-.2,7.52,2.37,10.28l46.82,50.21c2.57,2.76,6.42,3.93,10.09,3.08l66.89-15.44c3.67-.85,6.61-3.59,7.72-7.2l20.07-65.65c1.1-3.6.2-7.52-2.37-10.28L106.98,4.36c-2.57-2.76-6.42-3.93-10.09-3.08Z"/>
    </g>
  </g>
</svg>